<svg width="512" height="512" viewBox="0 0 512 512" fill="none" xmlns="http://www.w3.org/2000/svg">
  <!-- Background with rounded corners -->
  <rect width="512" height="512" rx="112" fill="url(#gradient)"/>

  <defs>
    <!-- Background gradient -->
    <linearGradient id="gradient" x1="0%" y1="0%" x2="0%" y2="100%">
      <stop offset="0%" style="stop-color:#3B82F6"/>
      <stop offset="50%" style="stop-color:#2563EB"/>
      <stop offset="100%" style="stop-color:#1E40AF"/>
    </linearGradient>

    <!-- SA gradient -->
    <linearGradient id="saGrad" x1="0%" y1="0%" x2="100%" y2="100%">
      <stop offset="0%" style="stop-color:#FFFFFF"/>
      <stop offset="100%" style="stop-color:#BFDBFE"/>
    </linearGradient>

    <!-- Highlight -->
    <linearGradient id="highlight" x1="0%" y1="0%" x2="0%" y2="100%">
      <stop offset="0%" style="stop-color:#FFFFFF;stop-opacity:0.2"/>
      <stop offset="100%" style="stop-color:#FFFFFF;stop-opacity:0"/>
    </linearGradient>

    <!-- Shadow -->
    <filter id="shadow" x="-50%" y="-50%" width="200%" height="200%">
      <feDropShadow dx="0" dy="4" stdDeviation="12" flood-color="#000000" flood-opacity="0.375"/>
    </filter>
  </defs>

  <!-- SA Fused Monogram Design -->
  <g filter="url(#shadow)">
    <!-- Combined SA path - S flows into A -->
    <!-- S portion -->
    <path d="M 165 175 C 135 175 115 200 120 240 C 125 280 165 310 210 305 C 245 300 270 275 265 245 C 260 220 235 200 205 208 C 180 215 170 235 180 255 C 190 275 215 285 240 275 L 242 290 C 210 305 170 295 152 260 C 135 220 155 170 200 168 C 240 165 280 190 285 235 L 300 235 C 295 185 245 150 165 175 Z" fill="url(#saGrad)"/>

    <!-- A portion - connected to S tail -->
    <path d="M 290 185 L 315 290 L 335 290 L 325 250 L 375 250 L 385 290 L 405 290 L 375 185 L 355 185 L 365 235 L 330 235 L 320 185 Z" fill="url(#saGrad)"/>

    <!-- A counter (hole) -->
    <path d="M 335 205 L 345 205 L 340 235 L 335 235 Z" fill="#1E40AF"/>
  </g>

  <!-- Top highlight -->
  <rect width="512" height="256" rx="112" fill="url(#highlight)" clip-path="inset(0 0 50% 0)"/>
</svg>
